<svg width="18" height="18" viewBox="0 0 18 18" fill="none" xmlns="http://www.w3.org/2000/svg">
<path d="M17.2311 1.97C17.2081 1.46847 17.0058 0.993824 16.6635 0.638787C16.3213 0.283749 15.8637 0.0738183 15.3803 0.0500002C14.7055 0.0200002 14.0596 0 13.433 0C8.58424 0 5.21997 0.97 3.34986 2.91C-0.197569 6.59 0.313338 11.81 3.43662 14.81H3.44626C4.75455 11.0154 7.39501 7.87271 10.8399 6.01C10.6375 6.19 6.30926 9.59 5.52844 16.26C6.54062 16.74 7.64919 17.01 8.7674 17.01C10.7435 17.01 12.7775 16.21 14.4741 14.46C16.5852 12.26 17.501 8.1 17.2311 1.97Z" fill="#0E6655"/>
</svg>
